HIERARCHY
ROOT mixamorig:Hips
{
	OFFSET 0.000000 201.639420 0.000000
	CHANNELS 6 Xposition Yposition Zposition Xrotation Yrotation Zrotation
	JOINT mixamorig:Spine
	{
		OFFSET 0.006200 19.524994 -2.481800
		CHANNELS 3 Xrotation Yrotation Zrotation
		JOINT mixamorig:Spine1
		{
			OFFSET -0.000900 22.835007 -2.825400
			CHANNELS 3 Xrotation Yrotation Zrotation
			JOINT mixamorig:Spine2
			{
				OFFSET -0.020600 26.552490 -3.193300
				CHANNELS 3 Xrotation Yrotation Zrotation
				JOINT mixamorig:Neck
				{
					OFFSET -0.060000 30.701813 1.352200
					CHANNELS 3 Xrotation Yrotation Zrotation
					JOINT mixamorig:Head
					{
						OFFSET -0.087200 22.547607 3.670900
						CHANNELS 3 Xrotation Yrotation Zrotation
						JOINT mixamorig:HeadTop_End
						{
							OFFSET -0.830600 40.355194 7.893500
							CHANNELS 3 Xrotation Yrotation Zrotation
							End Site
							{
								OFFSET 0.000000 30.592346 0.000000
							}
						}
						JOINT mixamorig:RightEye
						{
							OFFSET -6.302100 18.118591 16.197100
							CHANNELS 3 Xrotation Yrotation Zrotation
							End Site
							{
								OFFSET 0.000000 30.592346 0.000000
							}
						}
						JOINT mixamorig:LeftEye
						{
							OFFSET 6.741500 18.382690 16.401899
							CHANNELS 3 Xrotation Yrotation Zrotation
							End Site
							{
								OFFSET 0.000000 30.592346 0.000000
							}
						}
					}
				}
				JOINT mixamorig:LeftShoulder
				{
					OFFSET 11.924900 18.230499 1.425400
					CHANNELS 3 Xrotation Yrotation Zrotation
					JOINT mixamorig:LeftArm
					{
						OFFSET 25.435989 -0.697632 -5.229300
						CHANNELS 3 Xrotation Yrotation Zrotation
						JOINT mixamorig:LeftForeArm
						{
							OFFSET 54.684776 0.000000 0.000000
							CHANNELS 3 Xrotation Yrotation Zrotation
							JOINT mixamorig:LeftHand
							{
								OFFSET 55.098175 0.000000 0.000000
								CHANNELS 3 Xrotation Yrotation Zrotation
								JOINT mixamorig:LeftHandMiddle1
								{
									OFFSET 23.369751 0.000000 0.000000
									CHANNELS 3 Xrotation Yrotation Zrotation
									JOINT mixamorig:LeftHandMiddle2
									{
										OFFSET 6.378677 0.000000 0.000000
										CHANNELS 3 Xrotation Yrotation Zrotation
										JOINT mixamorig:LeftHandMiddle3
										{
											OFFSET 6.148331 0.000000 0.000000
											CHANNELS 3 Xrotation Yrotation Zrotation
											JOINT mixamorig:LeftHandMiddle4
											{
												OFFSET 6.582504 0.000000 0.000000
												CHANNELS 3 Xrotation Yrotation Zrotation
												End Site
												{
													OFFSET -1.168900 6.395691 1.028606
												}
											}
										}
									}
								}
								JOINT mixamorig:LeftHandThumb1
								{
									OFFSET 7.235672 -3.848206 5.434273
									CHANNELS 3 Xrotation Yrotation Zrotation
									JOINT mixamorig:LeftHandThumb2
									{
										OFFSET 6.568451 -3.792297 3.792300
										CHANNELS 3 Xrotation Yrotation Zrotation
										JOINT mixamorig:LeftHandThumb3
										{
											OFFSET 6.063080 -3.500519 3.500518
											CHANNELS 3 Xrotation Yrotation Zrotation
											JOINT mixamorig:LeftHandThumb4
											{
												OFFSET 4.793182 -2.767334 2.767349
												CHANNELS 3 Xrotation Yrotation Zrotation
												End Site
												{
													OFFSET 0.101639 6.054260 1.275483
												}
											}
										}
									}
								}
								JOINT mixamorig:LeftHandIndex1
								{
									OFFSET 23.101074 -0.309540 4.992809
									CHANNELS 3 Xrotation Yrotation Zrotation
									JOINT mixamorig:LeftHandIndex2
									{
										OFFSET 6.226883 0.000000 0.000000
										CHANNELS 3 Xrotation Yrotation Zrotation
										JOINT mixamorig:LeftHandIndex3
										{
											OFFSET 6.094330 0.000000 0.000000
											CHANNELS 3 Xrotation Yrotation Zrotation
											JOINT mixamorig:LeftHandIndex4
											{
												OFFSET 5.482605 0.000000 0.000000
												CHANNELS 3 Xrotation Yrotation Zrotation
												End Site
												{
													OFFSET -1.427902 5.233032 0.797164
												}
											}
										}
									}
								}
								JOINT mixamorig:LeftHandRing1
								{
									OFFSET 22.299240 0.021149 -3.964172
									CHANNELS 3 Xrotation Yrotation Zrotation
									JOINT mixamorig:LeftHandRing2
									{
										OFFSET 6.321869 0.000000 0.000000
										CHANNELS 3 Xrotation Yrotation Zrotation
										JOINT mixamorig:LeftHandRing3
										{
											OFFSET 5.899796 0.000000 0.000000
											CHANNELS 3 Xrotation Yrotation Zrotation
											JOINT mixamorig:LeftHandRing4
											{
												OFFSET 6.517899 0.000000 0.000000
												CHANNELS 3 Xrotation Yrotation Zrotation
												End Site
												{
													OFFSET -1.637299 6.232208 0.980890
												}
											}
										}
									}
								}
								JOINT mixamorig:LeftHandPinky1
								{
									OFFSET 20.463791 -0.302338 -8.562233
									CHANNELS 3 Xrotation Yrotation Zrotation
									JOINT mixamorig:LeftHandPinky2
									{
										OFFSET 6.908646 0.000000 0.000000
										CHANNELS 3 Xrotation Yrotation Zrotation
										JOINT mixamorig:LeftHandPinky3
										{
											OFFSET 4.622849 0.000000 0.000000
											CHANNELS 3 Xrotation Yrotation Zrotation
											JOINT mixamorig:LeftHandPinky4
											{
												OFFSET 5.216080 0.000000 0.000000
												CHANNELS 3 Xrotation Yrotation Zrotation
												End Site
												{
													OFFSET -0.606308 5.116241 0.814926
												}
											}
										}
									}
								}
							}
						}
					}
				}
				JOINT mixamorig:RightShoulder
				{
					OFFSET -12.001300 18.284088 1.348900
					CHANNELS 3 Xrotation Yrotation Zrotation
					JOINT mixamorig:RightArm
					{
						OFFSET -25.308500 -0.751312 -5.164599
						CHANNELS 3 Xrotation Yrotation Zrotation
						JOINT mixamorig:RightForeArm
						{
							OFFSET -54.684429 0.000000 0.000000
							CHANNELS 3 Xrotation Yrotation Zrotation
							JOINT mixamorig:RightHand
							{
								OFFSET -55.150291 0.000000 0.000000
								CHANNELS 3 Xrotation Yrotation Zrotation
								JOINT mixamorig:RightHandMiddle1
								{
									OFFSET -23.317566 0.000000 0.000000
									CHANNELS 3 Xrotation Yrotation Zrotation
									JOINT mixamorig:RightHandMiddle2
									{
										OFFSET -6.378403 0.000000 0.000000
										CHANNELS 3 Xrotation Yrotation Zrotation
										JOINT mixamorig:RightHandMiddle3
										{
											OFFSET -6.148193 0.000000 0.000000
											CHANNELS 3 Xrotation Yrotation Zrotation
											JOINT mixamorig:RightHandMiddle4
											{
												OFFSET -6.583389 0.000000 0.000000
												CHANNELS 3 Xrotation Yrotation Zrotation
												End Site
												{
													OFFSET 1.171692 6.395905 1.029786
												}
											}
										}
									}
								}
								JOINT mixamorig:RightHandThumb1
								{
									OFFSET -7.190521 -3.860474 5.435846
									CHANNELS 3 Xrotation Yrotation Zrotation
									JOINT mixamorig:RightHandThumb2
									{
										OFFSET -6.567429 -3.791718 3.791708
										CHANNELS 3 Xrotation Yrotation Zrotation
										JOINT mixamorig:RightHandThumb3
										{
											OFFSET -6.062469 -3.500153 3.500166
											CHANNELS 3 Xrotation Yrotation Zrotation
											JOINT mixamorig:RightHandThumb4
											{
												OFFSET -4.792618 -2.767029 2.767022
												CHANNELS 3 Xrotation Yrotation Zrotation
												End Site
												{
													OFFSET -0.100327 6.053253 1.276754
												}
											}
										}
									}
								}
								JOINT mixamorig:RightHandIndex1
								{
									OFFSET -23.048981 -0.310791 4.992554
									CHANNELS 3 Xrotation Yrotation Zrotation
									JOINT mixamorig:RightHandIndex2
									{
										OFFSET -6.227539 0.000000 0.000000
										CHANNELS 3 Xrotation Yrotation Zrotation
										JOINT mixamorig:RightHandIndex3
										{
											OFFSET -6.095047 0.000000 0.000000
											CHANNELS 3 Xrotation Yrotation Zrotation
											JOINT mixamorig:RightHandIndex4
											{
												OFFSET -5.484772 0.000000 0.000000
												CHANNELS 3 Xrotation Yrotation Zrotation
												End Site
												{
													OFFSET 1.420593 5.237305 0.797056
												}
											}
										}
									}
								}
								JOINT mixamorig:RightHandRing1
								{
									OFFSET -22.246323 0.020569 -3.963762
									CHANNELS 3 Xrotation Yrotation Zrotation
									JOINT mixamorig:RightHandRing2
									{
										OFFSET -6.322128 0.000000 0.000000
										CHANNELS 3 Xrotation Yrotation Zrotation
										JOINT mixamorig:RightHandRing3
										{
											OFFSET -5.900024 0.000000 0.000000
											CHANNELS 3 Xrotation Yrotation Zrotation
											JOINT mixamorig:RightHandRing4
											{
												OFFSET -6.518356 0.000000 0.000000
												CHANNELS 3 Xrotation Yrotation Zrotation
												End Site
												{
													OFFSET 1.636398 6.232697 0.982186
												}
											}
										}
									}
								}
								JOINT mixamorig:RightHandPinky1
								{
									OFFSET -20.411011 -0.303314 -8.561701
									CHANNELS 3 Xrotation Yrotation Zrotation
									JOINT mixamorig:RightHandPinky2
									{
										OFFSET -6.907349 0.000000 0.000000
										CHANNELS 3 Xrotation Yrotation Zrotation
										JOINT mixamorig:RightHandPinky3
										{
											OFFSET -4.623840 0.000000 0.000000
											CHANNELS 3 Xrotation Yrotation Zrotation
											JOINT mixamorig:RightHandPinky4
											{
												OFFSET -5.218353 0.000000 0.000000
												CHANNELS 3 Xrotation Yrotation Zrotation
												End Site
												{
													OFFSET 0.602097 5.118835 0.816273
												}
											}
										}
									}
								}
							}
						}
					}
				}
			}
		}
	}
	JOINT mixamorig:LeftUpLeg
	{
		OFFSET 18.168400 -13.561905 -0.039000
		CHANNELS 3 Xrotation Yrotation Zrotation
		JOINT mixamorig:LeftLeg
		{
			OFFSET 0.577358 -80.825211 -3.695000
			CHANNELS 3 Xrotation Yrotation Zrotation
			JOINT mixamorig:LeftFoot
			{
				OFFSET -0.577356 -83.370262 -6.520700
				CHANNELS 3 Xrotation Yrotation Zrotation
				JOINT mixamorig:LeftToeBase
				{
					OFFSET 0.750401 -20.798306 25.135401
					CHANNELS 3 Xrotation Yrotation Zrotation
					JOINT mixamorig:LeftToe_End
					{
						OFFSET -0.000500 0.001200 19.917799
						CHANNELS 3 Xrotation Yrotation Zrotation
						End Site
						{
							OFFSET 0.000000 19.917805 0.000000
						}
					}
				}
			}
		}
	}
	JOINT mixamorig:RightUpLeg
	{
		OFFSET -18.162500 -13.585098 -0.041000
		CHANNELS 3 Xrotation Yrotation Zrotation
		JOINT mixamorig:RightLeg
		{
			OFFSET -0.595024 -80.945297 -3.631900
			CHANNELS 3 Xrotation Yrotation Zrotation
			JOINT mixamorig:RightFoot
			{
				OFFSET 0.595024 -83.218193 -6.561200
				CHANNELS 3 Xrotation Yrotation Zrotation
				JOINT mixamorig:RightToeBase
				{
					OFFSET -0.753601 -20.807106 25.115000
					CHANNELS 3 Xrotation Yrotation Zrotation
					JOINT mixamorig:RightToe_End
					{
						OFFSET 0.000299 0.001700 19.918200
						CHANNELS 3 Xrotation Yrotation Zrotation
						End Site
						{
							OFFSET 0.000000 19.918203 0.000000
						}
					}
				}
			}
		}
	}
}
MOTION
Frames: 4
Frame Time: 0.033333
23.913952 88.606842 -257.143402 -41.808049 -32.064760 -20.354433 58.273357 2.548072 1.354481 10.765217 0.716409 -4.624777 17.659323 -0.154578 -4.642868 -10.863882 7.162990 2.372224 -17.330845 20.343908 10.668866 0.000000 -0.000001 -0.000001 0.000000 -0.000001 -0.000001 0.000000 -0.000001 -0.000001 -38.426596 -4.539551 1.418860 -72.444524 -19.062423 -69.499251 -0.000015 -45.958601 -0.000019 -122.614641 3.568535 21.881831 0.306815 5.326053 -50.579200 3.213994 5.224941 -63.171149 0.226408 1.614482 -15.964608 0.000002 0.000003 -0.000001 1.415461 -0.254039 2.673504 19.473177 -1.474884 7.636911 -4.536180 -9.613109 1.492984 0.000001 -0.000000 -0.000001 -1.973865 1.516910 -36.521049 2.506719 4.803812 -55.093026 0.323429 1.921413 -19.109070 0.000004 0.000001 -0.000002 -0.072490 5.737679 -61.059139 4.449898 5.681403 -76.121345 0.582663 2.548959 -25.748005 -0.000000 0.000001 -0.000001 2.788128 7.335378 -63.782212 4.511252 5.696118 -76.740426 1.414166 3.818129 -40.635681 -0.000001 -0.000001 0.000001 -43.221649 -10.359951 -8.426949 -53.637216 44.848808 97.347995 -0.000105 100.887140 0.000126 -39.426772 -25.633685 -23.374630 3.413053 -7.186244 51.650253 6.296821 -4.359597 110.634673 0.248718 -1.503064 18.790264 0.000002 -0.000000 -0.000000 8.377119 -4.904102 11.022025 21.620214 -18.183907 -18.379219 -0.702957 -49.821193 -32.535186 0.000004 -0.000000 -0.000002 -1.115060 1.389075 15.361551 1.479486 -3.406362 46.943456 0.615796 -2.316356 29.772002 -0.000000 -0.000000 -0.000001 -3.349046 -2.600427 57.010575 5.440858 -4.590904 99.698161 1.689396 -3.590690 50.382235 0.000000 -0.000000 -0.000003 -3.996450 -3.303921 64.593864 4.058851 -4.618643 82.610551 2.315544 -4.026778 59.787228 -0.000003 0.000000 0.000001 -73.130207 -6.383772 24.463615 124.815355 -8.286516 -0.497327 -14.829910 -6.346386 -1.889600 1.342305 -0.005088 0.660351 -0.000000 -0.000000 -0.000000 -49.569149 11.168126 -12.143268 147.746035 -9.018541 -2.873283 -17.544915 -9.820944 29.326169 -38.401530 -0.021703 1.161367 -0.000000 -0.000000 -0.000000 
23.790825 88.918427 -257.329773 -41.701631 -31.981285 -20.080830 58.021815 2.547176 1.320424 10.551298 0.719860 -4.646839 17.531146 -0.156870 -4.664630 -11.281401 7.130327 2.433931 -17.615495 20.374348 10.706257 -0.000001 -0.000000 0.000001 -0.000001 -0.000000 0.000001 -0.000001 -0.000000 0.000001 -38.272893 -4.591163 1.399413 -72.085495 -19.189377 -69.773531 0.000000 -46.254922 0.000006 -122.869571 3.646629 21.770140 0.376034 5.453235 -51.887188 3.362818 5.297283 -64.794351 0.273929 1.772124 -17.572627 0.000002 -0.000000 -0.000002 1.390130 -0.315118 2.668936 19.473185 -1.474897 7.636920 -4.536191 -9.613102 1.492970 0.000002 -0.000001 -0.000001 -2.007487 1.704306 -38.004173 2.744692 4.960796 -57.888401 0.422834 2.187156 -21.881368 -0.000002 -0.000000 0.000001 -0.072375 5.737869 -61.061003 4.452113 5.681931 -76.143714 0.582670 2.548970 -25.748003 -0.000001 0.000001 -0.000003 2.848372 7.364473 -63.752610 4.517179 5.697491 -76.799952 1.425591 3.831369 -40.806798 -0.000001 0.000001 0.000000 -43.029461 -10.257107 -8.274498 -52.645022 45.178781 96.592501 -0.000041 101.704850 0.000051 -39.313162 -25.895084 -24.228546 3.413057 -7.186247 51.650246 6.296815 -4.359604 110.634680 0.248714 -1.503074 18.790272 0.000000 0.000000 -0.000000 8.377132 -4.904124 11.022020 21.620201 -18.183869 -18.379223 -0.702951 -49.821193 -32.535210 0.000000 0.000001 -0.000001 -1.116262 1.387152 15.380322 1.484853 -3.411365 47.033646 0.615812 -2.316355 29.771999 0.000001 0.000000 -0.000002 -3.349031 -2.600429 57.010564 5.440872 -4.590898 99.698154 1.689395 -3.590675 50.382221 -0.000001 0.000001 -0.000002 -3.996446 -3.303924 64.593864 4.058850 -4.618638 82.610523 2.315530 -4.026782 59.787221 -0.000002 0.000000 0.000002 -72.982566 -6.129289 24.409638 124.511316 -8.325842 -0.497426 -14.755194 -6.328110 -1.876971 1.344847 -0.005044 0.656562 -0.000000 0.000000 0.000000 -49.407587 11.066480 -12.181525 147.553669 -9.183425 -2.879059 -17.497613 -9.913874 29.550656 -38.505663 -0.021737 1.058551 -0.000000 -0.000001 -0.000000 
23.753418 89.519119 -257.336243 -41.550909 -31.937975 -19.857817 57.835863 2.547295 1.340396 10.350469 0.723934 -4.635763 17.411177 -0.151147 -4.654810 -11.548021 7.120322 2.460120 -17.840997 20.387696 10.721746 -0.000000 -0.000000 -0.000002 -0.000000 -0.000000 -0.000002 -0.000000 -0.000000 -0.000002 -38.049724 -4.666204 1.371604 -71.938660 -19.307367 -69.856627 0.000062 -46.478187 0.000059 -123.219222 3.671799 21.693611 0.406884 5.507792 -52.453128 3.387148 5.308601 -65.057456 0.282011 1.797445 -17.832379 0.000003 0.000003 -0.000000 1.367992 -0.365860 2.665312 19.473190 -1.474877 7.636923 -4.536189 -9.613107 1.492969 -0.000001 0.000000 0.000001 -2.037926 1.979887 -40.081234 2.946692 5.081499 -60.196021 0.514303 2.402210 -24.165324 0.000001 0.000000 -0.000002 -0.072366 5.737890 -61.061017 4.454250 5.682467 -76.165311 0.582666 2.548973 -25.748001 -0.000001 0.000003 -0.000001 2.897920 7.388314 -63.711042 4.523844 5.699069 -76.867290 1.435176 3.842417 -40.950105 0.000000 -0.000001 0.000000 -42.750902 -10.106365 -8.054576 -52.137272 45.362599 95.993903 0.000183 102.313631 -0.000183 -39.204231 -26.335603 -24.873847 3.413061 -7.186254 51.650249 6.296819 -4.359593 110.634673 0.248723 -1.503063 18.790277 0.000001 -0.000001 0.000001 8.377125 -4.904140 11.022014 21.620214 -18.183878 -18.379214 -0.702970 -49.821206 -32.535224 0.000000 -0.000001 -0.000002 -1.117276 1.385540 15.396047 1.489358 -3.415544 47.109177 0.615812 -2.316362 29.772002 -0.000000 0.000000 -0.000001 -3.349036 -2.600435 57.010575 5.440861 -4.590884 99.698154 1.689390 -3.590686 50.382218 -0.000000 0.000000 -0.000002 -3.996450 -3.303933 64.593864 4.058830 -4.618653 82.610530 2.315541 -4.026792 59.787214 0.000000 -0.000000 -0.000000 -72.667127 -5.769355 24.357091 124.137486 -8.370160 -0.497776 -14.860250 -6.256802 -1.794922 1.346431 -0.005006 0.654226 -0.000000 -0.000000 -0.000000 -49.064650 11.043572 -12.294884 147.127438 -9.375150 -2.881998 -17.424173 -9.795825 29.841749 -38.609663 -0.021397 0.956478 -0.000000 0.000000 -0.000000 
23.788631 90.334198 -257.183502 -41.369568 -31.930274 -19.679641 57.745568 2.548122 1.392469 10.183553 0.729406 -4.604937 17.303350 -0.137676 -4.626067 -11.620775 7.120311 2.460176 -17.972772 20.386610 10.725005 -0.000001 0.000001 0.000000 -0.000001 0.000001 0.000000 -0.000001 0.000001 0.000000 -37.816596 -4.744756 1.343113 -71.970045 -19.396885 -69.790381 0.000033 -46.747188 0.000026 -123.505461 3.618297 21.761174 0.406869 5.507789 -52.453131 3.387147 5.308614 -65.057477 0.282017 1.797456 -17.832383 0.000001 0.000001 -0.000000 1.349457 -0.405018 2.661634 19.473178 -1.474892 7.636921 -4.536187 -9.613105 1.492979 -0.000001 0.000001 0.000001 -2.045944 1.972328 -40.095417 2.946691 5.081496 -60.195871 0.514304 2.402215 -24.165479 -0.000002 -0.000001 -0.000003 -0.072364 5.737893 -61.060990 4.455930 5.682869 -76.182277 0.582660 2.548960 -25.748003 -0.000000 -0.000002 -0.000001 2.937423 7.407397 -63.679472 4.529090 5.700290 -76.919999 1.442708 3.851058 -41.062363 0.000000 -0.000001 0.000001 -42.460489 -9.947116 -7.826613 -52.005614 45.407367 95.563014 0.000149 102.758632 -0.000163 -39.171944 -26.786038 -25.308711 3.413073 -7.186244 51.650242 6.296824 -4.359599 110.634694 0.248730 -1.503048 18.790277 0.000000 -0.000000 -0.000000 8.377149 -4.904135 11.021990 21.620187 -18.183890 -18.379219 -0.702946 -49.821206 -32.535189 -0.000001 -0.000000 0.000000 -1.118055 1.384298 15.408336 1.492875 -3.418820 47.168364 0.615813 -2.316356 29.772002 0.000001 0.000000 -0.000001 -3.349024 -2.600439 57.010547 5.440863 -4.590891 99.698133 1.689407 -3.590695 50.382242 0.000001 -0.000000 0.000000 -3.996441 -3.303934 64.593843 4.058851 -4.618643 82.610516 2.315534 -4.026778 59.787214 -0.000001 -0.000001 -0.000000 -72.225924 -5.330217 24.302745 123.721719 -8.421405 -0.498390 -15.110457 -6.143989 -1.656949 1.347105 -0.005006 0.653204 0.000000 0.000001 -0.000000 -48.577166 11.103214 -12.472099 146.524824 -9.572810 -2.879485 -17.333523 -9.505223 30.185386 -38.712757 -0.020659 0.856490 -0.000000 0.000000 -0.000000 
